<svg width="40" height="40" viewBox="0 0 40 40" fill="none" xmlns="http://www.w3.org/2000/svg">
<path d="M20.7061 2.80371C30.4628 2.80389 38.3719 10.7139 38.3721 20.4707C38.3719 30.2275 30.4628 38.1365 20.7061 38.1367C10.9493 38.1365 3.03924 30.2275 3.03906 20.4707C3.03924 10.7139 10.9493 2.80389 20.7061 2.80371ZM20.7061 4.80371C12.0539 4.80389 5.03924 11.8185 5.03906 20.4707C5.03924 29.1229 12.0539 36.1365 20.7061 36.1367C29.3583 36.1365 36.3719 29.1229 36.3721 20.4707C36.3719 11.8185 29.3583 4.80389 20.7061 4.80371ZM19.999 13.0967C20.3895 12.7064 21.0226 12.7064 21.4131 13.0967L28.0801 19.7637C28.2165 19.9002 28.3037 20.0671 28.3447 20.2422C28.3473 20.2533 28.3513 20.2641 28.3535 20.2754C28.4164 20.5918 28.3252 20.9325 28.0801 21.1777L21.4131 27.8438C21.0226 28.2343 20.3895 28.2343 19.999 27.8438C19.6088 27.4532 19.6086 26.8201 19.999 26.4297L24.957 21.4707H14.0391C13.4869 21.4705 13.0391 21.0229 13.0391 20.4707C13.0391 19.9185 13.4869 19.4709 14.0391 19.4707H24.959L19.999 14.5107C19.6087 14.1202 19.6086 13.4871 19.999 13.0967Z" fill="black"/>
</svg>
