<svg width="25" height="25" viewBox="0 0 25 25" fill="none" xmlns="http://www.w3.org/2000/svg">
<path d="M19.7407 11.5H5.20025C4.05304 11.5 3.12305 12.3954 3.12305 13.5V20.5C3.12305 21.6046 4.05304 22.5 5.20025 22.5H19.7407C20.8879 22.5 21.8179 21.6046 21.8179 20.5V13.5C21.8179 12.3954 20.8879 11.5 19.7407 11.5Z" stroke="#8E572A" stroke-width="2" stroke-linecap="round" stroke-linejoin="round"/>
<path d="M7.27759 11.5V7.5C7.27759 6.17392 7.82471 4.90215 8.79859 3.96447C9.77247 3.02678 11.0933 2.5 12.4706 2.5C13.8479 2.5 15.1687 3.02678 16.1426 3.96447C17.1165 4.90215 17.6636 6.17392 17.6636 7.5V11.5" stroke="#8E572A" stroke-width="2" stroke-linecap="round" stroke-linejoin="round"/>
</svg>
