<svg width="40" height="40" viewBox="0 0 40 40" fill="none" xmlns="http://www.w3.org/2000/svg">
<path d="M15 4C15.5523 4 16 4.44772 16 5C16 5.55228 15.5523 6 15 6H8.33301C7.71429 6.00009 7.1211 6.24609 6.68359 6.68359C6.24609 7.1211 6.00009 7.71429 6 8.33301V31.667C6.00009 32.2857 6.24609 32.8789 6.68359 33.3164C7.1211 33.7539 7.71429 33.9999 8.33301 34H15C15.5523 34 16 34.4477 16 35C16 35.5523 15.5523 36 15 36H8.33301C7.18385 35.9999 6.08211 35.543 5.26953 34.7305C4.45695 33.9179 4.00009 32.8161 4 31.667V8.33301C4.00009 7.18385 4.45695 6.08211 5.26953 5.26953C6.08211 4.45695 7.18385 4.00009 8.33301 4H15ZM25.96 10.96C26.3505 10.5694 26.9835 10.5694 27.374 10.96L35.707 19.293C35.7444 19.3304 35.7774 19.3707 35.8076 19.4121C35.8154 19.4228 35.8237 19.4333 35.8311 19.4443C35.854 19.4786 35.8734 19.5145 35.8916 19.5508C35.9599 19.6861 36 19.8381 36 20C36 20.2348 35.9177 20.4495 35.7822 20.6201C35.7586 20.6498 35.7345 20.6796 35.707 20.707L27.374 29.041C26.9837 29.4312 26.3505 29.4308 25.96 29.041C25.5695 28.6505 25.5696 28.0175 25.96 27.627L32.5859 21H15C14.4477 21 14 20.5523 14 20C14 19.4477 14.4477 19 15 19H32.5859L25.96 12.374C25.5694 11.9835 25.5694 11.3505 25.96 10.96Z" fill="#1F2A17"/>
</svg>
