<svg width="25" height="24" viewBox="0 0 25 24" fill="none" xmlns="http://www.w3.org/2000/svg">
<path d="M12.4706 16C14.765 16 16.625 14.2091 16.625 12C16.625 9.79086 14.765 8 12.4706 8C10.1762 8 8.31616 9.79086 8.31616 12C8.31616 14.2091 10.1762 16 12.4706 16Z" stroke="#8E572A" stroke-width="2" stroke-linecap="round" stroke-linejoin="round"/>
<path d="M16.6249 7.99999V13C16.6249 13.7956 16.9532 14.5587 17.5375 15.1213C18.1219 15.6839 18.9144 16 19.7407 16C20.5671 16 21.3596 15.6839 21.9439 15.1213C22.5283 14.5587 22.8565 13.7956 22.8565 13V12C22.8564 9.74302 22.0633 7.55247 20.6062 5.78452C19.1491 4.01658 17.1136 2.77521 14.8309 2.26229C12.5481 1.74936 10.1523 1.99503 8.03292 2.95936C5.91356 3.92368 4.19534 5.54995 3.15763 7.57371C2.11992 9.59748 1.82376 11.8997 2.3173 14.1061C2.81085 16.3125 4.06507 18.2932 5.87604 19.7263C7.687 21.1593 9.9482 21.9603 12.2919 21.9991C14.6357 22.0379 16.9242 21.3122 18.7852 19.94" stroke="#8E572A" stroke-width="2" stroke-linecap="round" stroke-linejoin="round"/>
</svg>
