<svg version="1.1" id="Layer_1" xmlns="http://www.w3.org/2000/svg" xmlns:xlink="http://www.w3.org/1999/xlink" x="0px" y="0px"
	 width="100%" viewBox="0 0 1024 720" enable-background="new 0 0 1024 720" xml:space="preserve">
<path fill="#000000" opacity="1.000000" stroke="none" 
	d="
M367.129272,303.849823 
	C369.174591,306.246582 369.161285,308.496826 368.609985,311.151855 
	C362.485992,340.643219 364.198334,369.796112 373.946411,398.217590 
	C383.057098,424.780670 402.269653,441.967316 427.705109,452.608398 
	C447.972687,461.087463 469.041260,466.261841 491.091492,467.031952 
	C492.361298,467.076294 493.799042,466.830231 495.007416,468.443024 
	C490.442352,471.745392 485.004089,471.438477 479.974609,472.126129 
	C458.946808,475.001251 437.753937,475.044403 416.635010,474.159637 
	C391.140320,473.091583 372.858246,460.898956 363.426880,436.571167 
	C356.372955,418.375854 353.517700,399.317078 351.814789,380.051025 
	C350.406097,364.113403 349.945587,348.136688 351.696472,332.178223 
	C352.602570,323.919983 353.384613,315.612457 355.813904,307.633606 
	C357.649689,301.603973 361.279785,300.420990 367.129272,303.849823 
z"/>
<path fill="#000000" opacity="1.000000" stroke="none" 
	d="
M445.998901,243.053711 
	C440.255493,239.305450 434.842560,235.712540 429.376953,232.201553 
	C422.471405,227.765564 418.371887,228.485840 412.682068,234.348083 
	C396.771149,250.740982 386.073303,270.459717 376.272125,290.774414 
	C375.982574,291.374542 375.697021,291.976898 375.392914,292.569611 
	C373.550018,296.160980 371.880859,300.207916 366.635742,298.696899 
	C362.654572,297.550018 360.656433,292.719513 362.111908,287.302002 
	C364.614441,277.987244 369.947998,270.034119 375.241943,262.172882 
	C384.679016,248.159378 395.336273,235.303726 409.322968,225.347473 
	C417.373016,219.617126 424.898071,219.408371 432.906189,224.543839 
	C448.748627,234.703278 464.606659,244.840332 480.343536,255.161530 
	C488.002594,260.184753 487.893585,260.371826 494.815735,254.208939 
	C502.028748,247.787094 509.214264,241.334320 516.430786,234.916336 
	C524.006592,228.178787 534.841187,226.074493 543.213501,237.091187 
	C551.980896,248.627563 561.266235,259.765717 569.098572,271.993011 
	C569.906189,273.253815 570.686829,274.536346 571.398987,275.852661 
	C572.157898,277.255432 572.619080,278.754211 570.836243,279.734161 
	C569.290894,280.583588 568.343994,279.395630 567.496582,278.374847 
	C563.455200,273.506500 559.539246,268.530823 555.404724,263.743591 
	C549.527039,256.937958 543.717407,250.060364 537.019226,244.011932 
	C531.467834,238.999084 528.315186,238.932816 522.836731,244.051010 
	C515.536133,250.871597 508.253296,257.714020 501.090088,264.677917 
	C494.798584,270.794403 490.655151,271.458191 482.953186,266.630341 
	C470.675446,258.934326 458.515625,251.050079 445.998901,243.053711 
z"/>
<path fill="#000000" opacity="1.000000" stroke="none" 
	d="
M520.359802,301.581055 
	C530.745728,313.766235 536.398682,327.964233 541.058960,342.611481 
	C542.025818,345.650238 543.765869,348.683838 543.069763,352.639343 
	C540.787720,351.047852 540.441589,348.888641 539.769348,346.951874 
	C535.612000,334.974854 530.959961,323.227295 523.911438,312.587189 
	C523.084534,311.338989 522.215820,310.109589 521.269043,308.951111 
	C515.038696,301.327332 510.009125,301.382904 504.049133,309.202881 
	C494.165588,322.170807 489.356720,337.462494 484.334686,352.639801 
	C482.819580,357.218658 481.611359,361.898254 480.166962,366.501678 
	C479.404877,368.930573 477.647461,370.085266 475.147827,369.267242 
	C473.039856,368.577362 472.578613,366.803101 473.111115,364.795013 
	C478.861816,343.108704 486.476868,322.185364 499.750854,303.841400 
	C505.831024,295.438965 512.535522,294.925110 520.359802,301.581055 
z"/>
<path fill="#000000" opacity="1.000000" stroke="none" 
	d="
M398.897949,381.641785 
	C399.987732,375.637085 403.503815,377.517487 406.339264,379.218689 
	C416.888214,385.547913 427.299591,392.106659 437.752441,398.595642 
	C440.719055,400.437317 443.655426,402.327850 446.597198,404.209167 
	C447.947632,405.072784 448.952576,406.174866 448.349884,407.914124 
	C447.776520,409.568787 446.225464,409.289520 444.958954,409.315308 
	C429.500061,409.629700 414.040405,409.907593 398.580811,410.188019 
	C397.916748,410.200073 397.246918,410.186035 396.587494,410.113739 
	C394.062714,409.837158 391.802185,408.923187 391.927673,405.991760 
	C392.057800,402.951874 394.487122,402.467896 397.000641,402.516907 
	C407.652740,402.724609 418.197693,404.211151 428.782715,405.214203 
	C434.065002,405.714783 439.337952,406.313782 444.943359,406.029022 
	C437.061737,402.191681 429.195648,398.322021 421.293213,394.528015 
	C415.747772,391.865631 410.121857,389.369751 404.595245,386.669800 
	C402.393311,385.594055 399.966156,384.645721 398.897949,381.641785 
z"/>
<path fill="#000000" opacity="1.000000" stroke="none" 
	d="
M592.563904,377.569275 
	C596.197815,373.655426 599.529968,369.940063 603.025208,366.384979 
	C605.059998,364.315399 607.448242,361.120483 610.497559,364.043427 
	C613.774231,367.184326 610.775879,369.737823 608.355591,371.842743 
	C597.946655,380.895386 587.504272,389.909698 577.052795,398.913177 
	C576.053894,399.773682 574.906860,400.462280 574.203735,401.741821 
	C578.567322,401.480988 582.125793,399.500610 585.843140,397.993805 
	C592.159058,395.433594 598.442383,392.790863 604.789246,390.310394 
	C607.137878,389.392487 610.372009,387.373383 611.571533,391.069366 
	C612.725647,394.625153 608.918396,395.155609 606.550110,395.873352 
	C598.125366,398.426758 589.630554,400.748932 581.165649,403.170532 
	C579.250793,403.718262 577.340576,404.285553 575.444641,404.895111 
	C573.375977,405.560272 571.511292,405.661224 569.952087,402.696289 
	C577.296570,394.537018 584.813538,386.186066 592.563904,377.569275 
z"/>
<path fill="#000000" opacity="1.000000" stroke="none" 
	d="
M412.669983,269.232727 
	C404.159149,267.414825 403.425690,267.825470 399.112579,275.057434 
	C396.612701,279.248962 394.742188,283.870087 391.429108,287.543030 
	C389.907898,286.598267 390.510223,285.523010 390.761688,284.682526 
	C394.661804,271.648041 400.065216,259.416931 409.316742,249.138657 
	C412.358246,245.759613 415.256256,244.863449 419.288177,247.452209 
	C425.367340,251.355438 431.645264,254.949188 437.474182,259.384430 
	C432.360199,258.986664 427.906555,256.754272 423.762604,254.373901 
	C418.875854,251.566849 415.750671,252.326157 412.785248,256.887207 
	C410.913910,259.765381 408.470764,262.271729 405.799103,265.537872 
	C410.690277,265.934662 414.905823,266.264984 419.118835,266.625244 
	C420.443054,266.738495 421.806915,266.767548 423.070831,267.124542 
	C425.396790,267.781616 428.688232,268.130188 427.604828,271.658691 
	C426.441010,275.449066 423.659515,273.362946 421.441040,272.541412 
	C418.636169,271.502747 415.857300,270.393799 412.669983,269.232727 
z"/>
<path fill="#000000" opacity="1.000000" stroke="none" 
	d="
M470.080078,405.898560 
	C467.240753,417.925873 465.148254,429.672241 463.019196,441.416565 
	C462.570496,443.891846 462.983185,448.383667 459.339844,448.031494 
	C455.246216,447.635834 456.579529,443.213440 456.854919,440.575623 
	C458.613037,423.735992 461.985748,407.181000 466.357880,390.829620 
	C466.611389,389.881500 467.043701,388.948944 467.556610,388.109222 
	C468.607025,386.389526 470.154877,385.347565 472.148468,386.251495 
	C473.888947,387.040619 474.236969,388.712555 473.805725,390.505188 
	C472.603424,395.502747 471.383972,400.496216 470.080078,405.898560 
z"/>
<path fill="#000000" opacity="1.000000" stroke="none" 
	d="
M415.863220,374.315247 
	C413.175018,373.269012 410.844421,372.372192 408.546722,371.397858 
	C406.268005,370.431519 404.935608,368.671631 405.830780,366.254333 
	C406.792725,363.656860 409.142883,363.664825 411.292877,364.569580 
	C415.432617,366.311707 419.530640,368.168762 423.563171,370.146912 
	C434.293823,375.410828 444.980499,380.764435 457.104980,386.787994 
	C454.838715,382.054047 453.147919,378.726898 451.652679,375.314087 
	C450.886383,373.565063 449.498199,371.107208 451.928772,370.060547 
	C454.619629,368.901794 455.064331,371.816437 455.629791,373.576202 
	C456.696167,376.894775 457.521240,380.293213 458.377411,383.675964 
	C458.731842,385.076385 459.526520,386.586670 458.084412,387.863037 
	C456.678284,389.107544 455.282196,388.267273 453.885315,387.771820 
	C441.336609,383.321045 428.785553,378.876862 415.863220,374.315247 
z"/>
<path fill="#000000" opacity="1.000000" stroke="none" 
	d="
M523.871338,387.184875 
	C519.363037,388.638977 516.020691,387.370972 513.137634,383.834351 
	C509.904358,387.266571 506.162079,389.147522 501.640106,386.877869 
	C499.216705,385.661530 496.755585,384.146576 497.276459,380.627228 
	C499.854675,380.474487 500.353729,382.802185 501.924194,383.613983 
	C504.939728,385.172760 507.753876,385.309875 509.871460,382.326599 
	C512.068665,379.231232 509.298004,377.975403 507.381409,376.459320 
	C506.212006,375.534241 504.992157,374.640472 503.975403,373.562500 
	C502.429993,371.924072 502.206818,369.930267 503.492554,368.092285 
	C504.790009,366.237549 506.763336,366.411285 508.371429,367.515564 
	C511.489105,369.656403 514.304565,369.812592 517.463867,367.490570 
	C519.161072,366.243164 521.395569,366.185181 522.687622,368.338165 
	C523.822815,370.229767 523.490723,372.224396 521.874634,373.792358 
	C520.807983,374.827209 519.588989,375.711548 518.398926,376.611328 
	C516.360046,378.152924 514.027405,379.641052 516.302368,382.590210 
	C518.403931,385.314606 521.153442,385.260406 523.856934,383.676910 
	C525.358032,382.797699 526.589661,381.458344 528.940552,379.491608 
	C528.941528,384.033356 526.947205,385.770233 523.871338,387.184875 
z"/>
<path fill="#000000" opacity="1.000000" stroke="none" 
	d="
M557.722412,413.065186 
	C556.466064,406.164978 555.251648,399.694855 554.037231,393.224731 
	C554.545166,393.114166 555.053162,393.003601 555.561096,392.893036 
	C561.396057,408.705261 563.320129,425.444763 565.585144,442.523560 
	C572.145081,439.606873 575.039673,433.314606 580.292053,429.213257 
	C581.711792,435.196075 570.907104,447.047241 561.994995,449.874969 
	C561.557739,437.512512 560.244629,425.421936 557.722412,413.065186 
z"/>
<path fill="#000000" opacity="1.000000" stroke="none" 
	d="
M583.675476,308.255035 
	C581.521118,303.697815 579.467041,299.511749 577.479431,295.294373 
	C576.739136,293.723602 575.143372,291.753418 577.608521,290.608643 
	C579.575989,289.695068 580.498779,291.791687 581.234131,293.206451 
	C589.020935,308.187073 595.507446,323.658173 598.274109,340.437317 
	C598.817566,343.732971 600.447266,347.137146 598.495117,350.529846 
	C596.183655,350.707764 595.990295,349.135468 595.759216,347.651520 
	C593.643066,334.065491 589.073303,321.232544 583.675476,308.255035 
z"/>
<path fill="#000000" opacity="1.000000" stroke="none" 
	d="
M556.285217,337.043945 
	C561.296814,337.075043 564.749451,339.037476 566.009399,343.618225 
	C566.969666,347.109528 565.778259,350.263031 562.796936,352.362701 
	C559.579224,354.628906 556.052856,354.992126 552.533997,352.898834 
	C549.384277,351.025146 547.856201,348.141846 548.334717,344.562683 
	C548.907959,340.274628 551.749451,337.948242 556.285217,337.043945 
z"/>
<path fill="#000000" opacity="1.000000" stroke="none" 
	d="
M464.979980,345.200592 
	C464.901520,348.592651 463.745270,351.084839 461.234894,352.812531 
	C456.919220,355.782623 450.642059,354.492889 448.059113,350.151489 
	C445.580536,345.985504 447.003845,340.965393 451.336456,338.592072 
	C456.064026,336.002411 461.749084,337.700500 464.119019,342.447693 
	C464.487030,343.184875 464.656952,344.020905 464.979980,345.200592 
z"/>
<path fill="#000000" opacity="1.000000" stroke="none" 
	d="
M420.346313,284.390564 
	C410.263000,285.561890 400.856598,287.685364 391.720245,292.042725 
	C391.679047,289.086639 393.431824,288.833405 394.626068,288.148926 
	C403.687408,282.955597 413.665985,280.589111 423.828156,278.839325 
	C424.952881,278.645660 426.149963,278.699158 427.292603,278.826050 
	C428.716858,278.984161 429.882233,279.706787 429.939636,281.286377 
	C429.991180,282.704468 428.866852,283.301453 427.674683,283.490906 
	C425.391754,283.853638 423.086395,284.075195 420.346313,284.390564 
z"/>
<path fill="#000000" opacity="1.000000" stroke="none" 
	d="
M565.981812,384.092010 
	C563.247986,382.762695 563.315796,380.999603 565.461243,379.968018 
	C576.967407,374.435486 588.313904,368.539703 600.308105,364.078583 
	C600.502319,364.006348 600.854065,364.357361 602.048157,365.016235 
	C590.206116,372.236877 578.599182,378.733429 565.981812,384.092010 
z"/>
</svg>