<svg width="800" height="777" viewBox="0 0 800 777" fill="none" xmlns="http://www.w3.org/2000/svg">
<path d="M50.7104 254.06C56.9705 261.397 56.9297 268.286 55.2424 276.414C36.4988 366.7 41.7397 455.949 71.5755 542.959C99.4605 624.28 158.264 676.896 236.114 709.472C298.147 735.43 362.631 751.271 430.12 753.629C434.006 753.765 438.407 753.011 442.105 757.949C428.133 768.059 411.488 767.119 396.095 769.224C331.735 778.026 266.87 778.159 202.232 775.45C124.201 772.18 68.245 734.853 39.3785 660.376C17.7887 604.672 9.04963 546.325 3.83756 487.344C-0.474006 438.552 -1.88348 389.64 3.47543 340.785C6.24871 315.503 8.6423 290.07 16.0776 265.643C21.6964 247.184 32.8069 243.563 50.7104 254.06Z" fill="black"/>
<path d="M292.106 67.9378C274.527 56.4628 257.96 45.4634 241.231 34.7148C220.096 21.1343 207.548 23.3394 190.134 41.2862C141.435 91.4718 108.692 151.839 78.6941 214.031C77.8079 215.868 76.9339 217.712 76.0031 219.527C70.3626 230.522 65.2538 242.911 49.2002 238.285C37.0151 234.774 30.8994 219.986 35.3542 203.4C43.0136 174.884 59.338 150.536 75.5411 126.47C104.425 83.5684 137.043 44.2118 179.852 13.7315C204.491 -3.81148 227.523 -4.45057 252.033 11.2713C300.522 42.3736 349.058 73.4074 397.224 105.005C420.666 120.383 420.332 120.956 441.519 102.089C463.596 82.4287 485.588 62.674 507.676 43.0258C530.863 22.3994 564.024 15.9572 589.649 49.684C616.483 85.0017 644.903 119.1 668.875 156.533C671.347 160.393 673.736 164.319 675.916 168.349C678.239 172.644 679.65 177.232 674.194 180.232C669.464 182.833 666.566 179.196 663.972 176.071C651.603 161.167 639.617 145.934 626.963 131.278C608.973 110.443 591.192 89.3881 570.691 70.8713C553.699 55.5249 544.05 55.322 527.282 70.9909C504.938 91.8716 482.647 112.819 460.723 134.139C441.466 152.864 428.785 154.896 405.211 140.116C367.633 116.555 330.416 92.418 292.106 67.9378Z" fill="black"/>
<path d="M519.701 247.115C551.489 284.419 568.791 327.885 583.054 372.727C586.013 382.029 591.339 391.317 589.209 403.426C582.224 398.554 581.165 391.944 579.107 386.014C566.383 349.348 552.144 313.383 530.571 280.81C528.04 276.988 525.381 273.225 522.483 269.678C503.414 246.338 488.02 246.508 469.779 270.449C439.528 310.149 424.81 356.963 409.439 403.427C404.802 417.445 401.104 431.771 396.683 445.864C394.35 453.3 388.972 456.835 381.321 454.331C374.869 452.219 373.457 446.787 375.087 440.64C392.688 374.249 415.996 310.194 456.623 254.035C475.233 228.312 495.753 226.738 519.701 247.115Z" fill="black"/>
<path d="M147.945 492.214C151.28 473.831 162.042 479.588 170.72 484.796C203.007 504.173 234.873 524.252 266.866 544.117C275.946 549.755 284.933 555.543 293.937 561.303C298.07 563.946 301.146 567.32 299.302 572.645C297.547 577.711 292.799 576.856 288.923 576.935C241.608 577.897 194.291 578.748 146.974 579.606C144.942 579.643 142.892 579.6 140.873 579.379C133.146 578.532 126.227 575.734 126.611 566.76C127.009 557.453 134.445 555.972 142.138 556.122C174.74 556.758 207.015 561.309 239.413 564.379C255.58 565.912 271.719 567.746 288.875 566.874C264.752 555.126 240.677 543.279 216.49 531.664C199.517 523.514 182.298 515.873 165.382 507.607C158.643 504.314 151.214 501.411 147.945 492.214Z" fill="black"/>
<path d="M740.695 479.746C751.817 467.764 762.016 456.39 772.714 445.506C778.942 439.17 786.251 429.389 795.584 438.337C805.613 447.953 796.436 455.77 789.028 462.214C757.17 489.928 725.209 517.525 693.22 545.088C690.163 547.723 686.652 549.831 684.5 553.748C697.856 552.95 708.747 546.887 720.125 542.274C739.456 534.436 758.687 526.345 778.113 518.752C785.301 515.942 795.2 509.76 798.871 521.075C802.404 531.961 790.751 533.585 783.502 535.782C757.717 543.599 731.717 550.708 705.808 558.122C699.948 559.799 694.101 561.536 688.298 563.402C681.967 565.438 676.26 565.747 671.487 556.67C693.966 531.691 716.974 506.125 740.695 479.746Z" fill="black"/>
<path d="M190.097 148.083C164.048 142.517 161.803 143.774 148.602 165.914C140.95 178.746 135.225 192.894 125.085 204.138C120.429 201.246 122.273 197.954 123.042 195.381C134.979 155.477 151.517 118.032 179.833 86.5661C189.143 76.2214 198.012 73.4779 210.353 81.4032C228.959 93.3526 248.174 104.355 266.014 117.933C250.362 116.715 236.731 109.881 224.048 102.593C209.091 93.9998 199.526 96.3244 190.449 110.288C184.722 119.099 177.244 126.772 169.067 136.771C184.037 137.986 196.94 138.997 209.835 140.1C213.888 140.447 218.062 140.536 221.93 141.628C229.049 143.64 239.123 144.707 235.808 155.509C232.245 167.113 223.732 160.727 216.942 158.212C208.357 155.032 199.852 151.637 190.097 148.083Z" fill="black"/>
<path d="M365.81 566.474C357.12 603.295 350.715 639.255 344.199 675.209C342.826 682.787 344.089 696.539 332.938 695.461C320.408 694.249 324.489 680.71 325.332 672.635C330.713 621.082 341.036 570.4 354.418 520.342C355.193 517.439 356.517 514.584 358.086 512.013C361.301 506.749 366.039 503.559 372.141 506.326C377.468 508.742 378.533 513.86 377.213 519.348C373.533 534.648 369.801 549.935 365.81 566.474Z" fill="black"/>
<path d="M199.87 469.784C191.642 466.581 184.509 463.835 177.477 460.852C170.502 457.894 166.424 452.506 169.164 445.106C172.108 437.154 179.301 437.178 185.882 439.948C198.552 445.282 211.095 450.967 223.437 457.023C256.28 473.138 288.989 489.527 326.098 507.968C319.162 493.476 313.987 483.29 309.41 472.842C307.065 467.487 302.816 459.963 310.255 456.758C318.491 453.211 319.852 462.134 321.583 467.521C324.847 477.681 327.372 488.085 329.993 498.441C331.077 502.728 333.51 507.352 329.096 511.259C324.792 515.069 320.519 512.497 316.244 510.98C277.836 497.354 239.421 483.749 199.87 469.784Z" fill="black"/>
<path d="M530.448 509.184C516.65 513.636 506.42 509.754 497.596 498.927C487.7 509.434 476.246 515.193 462.406 508.244C454.988 504.52 447.456 499.883 449.05 489.108C456.941 488.641 458.468 495.767 463.275 498.252C472.505 503.024 481.118 503.444 487.599 494.311C494.324 484.835 485.844 480.99 479.978 476.349C476.399 473.517 472.665 470.78 469.553 467.48C464.823 462.464 464.14 456.36 468.075 450.734C472.047 445.055 478.086 445.587 483.008 448.968C492.55 455.522 501.168 456 510.837 448.892C516.032 445.073 522.871 444.895 526.826 451.486C530.3 457.277 529.284 463.384 524.337 468.184C521.073 471.352 517.342 474.059 513.699 476.814C507.459 481.533 500.319 486.089 507.282 495.118C513.714 503.458 522.13 503.292 530.404 498.445C534.999 495.753 538.768 491.653 545.964 485.632C545.967 499.536 539.863 504.853 530.448 509.184Z" fill="black"/>
<path d="M634.056 588.414C630.21 567.29 626.493 547.482 622.776 527.674C624.331 527.336 625.886 526.997 627.44 526.659C645.299 575.067 651.188 626.313 658.121 678.599C678.199 669.669 687.058 650.406 703.134 637.85C707.479 656.166 674.41 692.448 647.133 701.104C645.794 663.258 641.775 626.243 634.056 588.414Z" fill="black"/>
<path d="M713.491 267.546C706.897 253.595 700.61 240.779 694.527 227.868C692.261 223.059 687.377 217.028 694.922 213.523C700.944 210.726 703.768 217.145 706.019 221.476C729.852 267.338 749.705 314.702 758.173 366.07C759.836 376.159 764.824 386.581 758.849 396.967C751.774 397.512 751.183 392.699 750.475 388.156C743.998 346.563 730.012 307.276 713.491 267.546Z" fill="black"/>
<path d="M629.658 355.681C644.996 355.776 655.564 361.784 659.42 375.808C662.359 386.496 658.713 396.15 649.588 402.578C639.739 409.516 628.946 410.628 618.176 404.22C608.536 398.483 603.859 389.657 605.324 378.699C607.078 365.572 615.775 358.45 629.658 355.681Z" fill="black"/>
<path d="M350.2 380.651C349.96 391.036 346.421 398.666 338.737 403.955C325.528 413.047 306.316 409.099 298.41 395.808C290.824 383.054 295.18 367.686 308.441 360.42C322.911 352.492 340.311 357.69 347.565 372.224C348.691 374.48 349.211 377.04 350.2 380.651Z" fill="black"/>
<path d="M213.591 194.486C182.729 198.072 153.939 204.573 125.976 217.913C125.85 208.863 131.214 208.088 134.87 205.992C162.604 190.093 193.145 182.849 224.248 177.492C227.69 176.899 231.354 177.063 234.852 177.451C239.211 177.935 242.778 180.147 242.953 184.983C243.111 189.325 239.67 191.152 236.021 191.732C229.034 192.843 221.978 193.521 213.591 194.486Z" fill="black"/>
<path d="M659.335 499.715C650.967 495.645 651.175 490.248 657.741 487.09C692.958 470.152 727.686 452.103 764.397 438.446C764.991 438.224 766.068 439.299 769.722 441.316C733.478 463.421 697.953 483.31 659.335 499.715Z" fill="black"/>
</svg>
